<svg width="157" height="20" viewBox="0 0 157 20" fill="none" xmlns="http://www.w3.org/2000/svg">
<path d="M10.475 7.7H15.95V5H10.175V1.575H6.875V5H1.1V7.7H6.525V7.925C6.525 10.675 4.775 13.025 0.3 13.8L1.75 16.375C5.175 15.675 7.4 14.05 8.5 11.725C9.6 14.05 11.825 15.675 15.25 16.375L16.725 13.8C12.25 13.025 10.475 10.675 10.475 7.925V7.7ZM22.248 19V14.05H27.148V19H22.248ZM43.6922 19.425C42.4922 19.425 41.4255 19.1833 40.4922 18.7C39.5589 18.2 38.8255 17.475 38.2922 16.525C37.7755 15.575 37.5172 14.4083 37.5172 13.025V12.375H39.4172V13.35C39.4172 14.7167 39.8005 15.7833 40.5672 16.55C41.3505 17.3 42.3922 17.675 43.6922 17.675C45.0089 17.675 46.0505 17.3 46.8172 16.55C47.6005 15.7833 47.9922 14.7167 47.9922 13.35V2.475H39.9422V0.75H49.8922V13.025C49.8922 14.4083 49.6255 15.575 49.0922 16.525C48.5755 17.475 47.8505 18.2 46.9172 18.7C45.9839 19.1833 44.9089 19.425 43.6922 19.425ZM53.6062 19L60.3313 0.75H63.7313L70.6813 19H68.7313L66.5313 13.2H57.6063L55.5063 19H53.6062ZM58.2563 11.475H65.8813L62.4563 2.475H61.5313L58.2563 11.475ZM75.6068 19V0.75H85.9068V2.475H77.5068V8.875H85.3318V10.575H77.5068V17.275H86.1818V19H75.6068ZM94.9453 19L89.8953 0.75H91.8453L96.2703 17.275H97.1453L100.745 1.55H103.27L107.295 17.275H108.12L112.145 0.75H114.045L109.42 19H105.92L102.02 3.825L98.4453 19H94.9453ZM126.707 19.425C125.124 19.425 123.749 19.1417 122.582 18.575C121.416 18.0083 120.441 17.2583 119.657 16.325C118.891 15.3917 118.316 14.375 117.932 13.275C117.566 12.175 117.382 11.1 117.382 10.05V9.6C117.382 8.48333 117.574 7.375 117.957 6.275C118.357 5.15833 118.949 4.15 119.732 3.25C120.516 2.35 121.491 1.63333 122.657 1.1C123.824 0.55 125.174 0.275 126.707 0.275C128.257 0.275 129.607 0.55 130.757 1.1C131.924 1.63333 132.899 2.35 133.682 3.25C134.466 4.15 135.049 5.15833 135.432 6.275C135.832 7.375 136.032 8.48333 136.032 9.6V10.075C136.032 11.125 135.841 12.2 135.457 13.3C135.091 14.3833 134.524 15.3917 133.757 16.325C132.991 17.2583 132.016 18.0083 130.832 18.575C129.666 19.1417 128.291 19.425 126.707 19.425ZM126.707 17.675C127.874 17.675 128.916 17.4667 129.832 17.05C130.749 16.6167 131.524 16.0333 132.157 15.3C132.791 14.55 133.274 13.7083 133.607 12.775C133.941 11.8417 134.107 10.8667 134.107 9.85C134.107 8.43333 133.807 7.13333 133.207 5.95C132.624 4.76667 131.774 3.81667 130.657 3.1C129.557 2.38333 128.241 2.025 126.707 2.025C125.191 2.025 123.874 2.38333 122.757 3.1C121.657 3.81667 120.807 4.76667 120.207 5.95C119.607 7.13333 119.307 8.43333 119.307 9.85C119.307 10.8667 119.474 11.8417 119.807 12.775C120.141 13.7083 120.624 14.55 121.257 15.3C121.907 16.0333 122.691 16.6167 123.607 17.05C124.524 17.4667 125.557 17.675 126.707 17.675ZM141.637 19V0.75H144.812L154.812 17.275H155.112V0.75H156.937V19H153.737L143.737 2.475H143.437V19H141.637Z" fill="white"/>
</svg>
