<svg width="691" height="566" viewBox="0 0 691 566" fill="none" xmlns="http://www.w3.org/2000/svg">
<rect x="236" width="455" height="551" fill="#2F3542"/>
<rect y="99" width="633" height="281" fill="#FF6348"/>
<path d="M66.8 208.6C64.7667 208.6 62.8333 208.25 61 207.55C59.2 206.817 57.6 205.75 56.2 204.35C54.8333 202.95 53.7333 201.217 52.9 199.15C52.1 197.05 51.7 194.633 51.7 191.9C51.7 189.2 52.1 186.8 52.9 184.7C53.7 182.567 54.8 180.767 56.2 179.3C57.6 177.833 59.25 176.717 61.15 175.95C63.05 175.183 65.0833 174.8 67.25 174.8C69.3167 174.8 71.1833 175.233 72.85 176.1C74.5167 176.933 75.9 177.883 77 178.95L72.95 183.5C72.1833 182.8 71.3333 182.233 70.4 181.8C69.5 181.367 68.45 181.15 67.25 181.15C66.0833 181.15 65.0167 181.4 64.05 181.9C63.0833 182.367 62.2333 183.05 61.5 183.95C60.8 184.85 60.25 185.95 59.85 187.25C59.45 188.55 59.25 190.017 59.25 191.65C59.25 195.017 60.0167 197.633 61.55 199.5C63.0833 201.333 65.0833 202.25 67.55 202.25C68.7167 202.25 69.7833 201.983 70.75 201.45C71.75 200.917 72.65 200.217 73.45 199.35L77.5 203.8C74.8 207 71.2333 208.6 66.8 208.6ZM95.1305 208.6C94.2305 208.6 93.2971 208.5 92.3305 208.3C91.3638 208.133 90.4138 207.833 89.4805 207.4C88.5471 206.967 87.6471 206.417 86.7805 205.75C85.9138 205.05 85.1305 204.2 84.4305 203.2L88.6805 198.65C90.5805 201.05 92.6471 202.25 94.8805 202.25C96.5805 202.25 97.8471 201.833 98.6805 201C99.5138 200.133 99.9305 198.567 99.9305 196.3V181.55H87.1805V175.4H107.28V196.9C107.28 198.5 107.064 200.017 106.63 201.45C106.23 202.85 105.547 204.083 104.58 205.15C103.614 206.217 102.347 207.067 100.78 207.7C99.2471 208.3 97.3638 208.6 95.1305 208.6ZM126.161 191.5L125.411 194.5H132.261L131.511 191.5C131.078 189.867 130.628 188.15 130.161 186.35C129.694 184.517 129.278 182.733 128.911 181H128.711C128.311 182.733 127.894 184.517 127.461 186.35C127.028 188.15 126.594 189.867 126.161 191.5ZM114.411 208L124.561 175.4H133.361L143.511 208H135.711L133.761 200.25H123.911L121.911 208H114.411ZM151.041 208V175.4H172.641V181.6H158.441V188.15H170.491V194.3H158.441V201.8H173.141V208H151.041ZM183.472 208L179.122 175.4H186.772L187.772 192.75C187.805 194.15 187.822 195.5 187.822 196.8C187.855 198.067 187.889 199.45 187.922 200.95H188.122C188.355 199.45 188.605 198.067 188.872 196.8C189.172 195.5 189.455 194.15 189.722 192.75L191.922 183.65H196.622L198.672 192.75C198.939 194.117 199.205 195.45 199.472 196.75C199.739 198.05 200.005 199.45 200.272 200.95H200.472C200.505 199.45 200.522 198.05 200.522 196.75C200.555 195.45 200.605 194.117 200.672 192.75L201.572 175.4H208.722L204.722 208H196.822L194.922 197.9C194.722 196.867 194.539 195.817 194.372 194.75C194.205 193.683 194.089 192.667 194.022 191.7H193.872C193.772 192.667 193.655 193.683 193.522 194.75C193.389 195.817 193.222 196.867 193.022 197.9L191.122 208H183.472ZM226.402 208.6C224.469 208.6 222.686 208.233 221.052 207.5C219.452 206.767 218.069 205.683 216.902 204.25C215.769 202.817 214.886 201.05 214.252 198.95C213.619 196.817 213.302 194.35 213.302 191.55C213.302 188.817 213.619 186.417 214.252 184.35C214.886 182.25 215.769 180.5 216.902 179.1C218.069 177.667 219.452 176.6 221.052 175.9C222.686 175.167 224.469 174.8 226.402 174.8C228.336 174.8 230.102 175.167 231.702 175.9C233.336 176.6 234.719 177.667 235.852 179.1C237.019 180.5 237.919 182.25 238.552 184.35C239.186 186.417 239.502 188.817 239.502 191.55C239.502 194.35 239.186 196.817 238.552 198.95C237.919 201.05 237.019 202.817 235.852 204.25C234.719 205.683 233.336 206.767 231.702 207.5C230.102 208.233 228.336 208.6 226.402 208.6ZM226.402 202.25C228.102 202.25 229.452 201.35 230.452 199.55C231.452 197.75 231.952 195.083 231.952 191.55C231.952 188.15 231.452 185.567 230.452 183.8C229.452 182.033 228.102 181.15 226.402 181.15C224.702 181.15 223.352 182.033 222.352 183.8C221.352 185.567 220.852 188.15 220.852 191.55C220.852 195.083 221.352 197.75 222.352 199.55C223.352 201.35 224.702 202.25 226.402 202.25ZM247.183 208V175.4H254.733L261.583 191.6L264.383 198.8H264.583C264.416 197.067 264.199 195.15 263.933 193.05C263.666 190.917 263.533 188.883 263.533 186.95V175.4H270.583V208H263.033L256.183 191.75L253.383 184.65H253.183C253.349 186.45 253.566 188.383 253.833 190.45C254.099 192.517 254.233 194.517 254.233 196.45V208H247.183Z" fill="black"/>
<path d="M60.65 280.6C59.75 280.6 58.8167 280.5 57.85 280.3C56.8833 280.133 55.9333 279.833 55 279.4C54.0667 278.967 53.1667 278.417 52.3 277.75C51.4333 277.05 50.65 276.2 49.95 275.2L54.2 270.65C56.1 273.05 58.1667 274.25 60.4 274.25C62.1 274.25 63.3667 273.833 64.2 273C65.0333 272.133 65.45 270.567 65.45 268.3V253.55H52.7V247.4H72.8V268.9C72.8 270.5 72.5833 272.017 72.15 273.45C71.75 274.85 71.0667 276.083 70.1 277.15C69.1333 278.217 67.8667 279.067 66.3 279.7C64.7667 280.3 62.8833 280.6 60.65 280.6ZM90.6805 280.6C89.4138 280.6 88.2805 280.4 87.2805 280C86.2805 279.633 85.4305 279.117 84.7305 278.45C84.0305 277.75 83.4805 276.95 83.0805 276.05C82.7138 275.15 82.5305 274.167 82.5305 273.1C82.5305 271.7 82.8305 270.483 83.4305 269.45C84.0305 268.383 84.9805 267.483 86.2805 266.75C87.6138 266.017 89.3138 265.433 91.3805 265C93.4471 264.533 95.9471 264.217 98.8805 264.05C98.7471 262.917 98.2471 262.033 97.3805 261.4C96.5471 260.767 95.2805 260.45 93.5805 260.45C92.3805 260.45 91.1638 260.667 89.9305 261.1C88.7305 261.5 87.4305 262.05 86.0305 262.75L83.4305 257.95C85.1305 256.983 86.9471 256.183 88.8805 255.55C90.8471 254.917 92.8971 254.6 95.0305 254.6C98.4971 254.6 101.23 255.517 103.23 257.35C105.23 259.183 106.23 262 106.23 265.8V280H100.23L99.6805 277.2H99.4805C98.2138 278.167 96.8305 278.983 95.3305 279.65C93.8305 280.283 92.2805 280.6 90.6805 280.6ZM93.0305 274.9C94.1305 274.9 95.1638 274.683 96.1305 274.25C97.0971 273.783 98.0138 273.217 98.8805 272.55V268.45C97.0471 268.55 95.5305 268.717 94.3305 268.95C93.1305 269.183 92.1805 269.483 91.4805 269.85C90.7805 270.183 90.2805 270.583 89.9805 271.05C89.7138 271.517 89.5805 272.017 89.5805 272.55C89.5805 273.35 89.8805 273.95 90.4805 274.35C91.1138 274.717 91.9638 274.9 93.0305 274.9ZM122.861 280L113.511 255.2H120.911L124.811 266.9C125.211 268.167 125.594 269.433 125.961 270.7C126.328 271.967 126.694 273.25 127.061 274.55H127.261C127.628 273.25 127.978 271.967 128.311 270.7C128.678 269.433 129.061 268.167 129.461 266.9L133.361 255.2H140.411L131.311 280H122.861ZM155.641 280.6C154.375 280.6 153.241 280.4 152.241 280C151.241 279.633 150.391 279.117 149.691 278.45C148.991 277.75 148.441 276.95 148.041 276.05C147.675 275.15 147.491 274.167 147.491 273.1C147.491 271.7 147.791 270.483 148.391 269.45C148.991 268.383 149.941 267.483 151.241 266.75C152.575 266.017 154.275 265.433 156.341 265C158.408 264.533 160.908 264.217 163.841 264.05C163.708 262.917 163.208 262.033 162.341 261.4C161.508 260.767 160.241 260.45 158.541 260.45C157.341 260.45 156.125 260.667 154.891 261.1C153.691 261.5 152.391 262.05 150.991 262.75L148.391 257.95C150.091 256.983 151.908 256.183 153.841 255.55C155.808 254.917 157.858 254.6 159.991 254.6C163.458 254.6 166.191 255.517 168.191 257.35C170.191 259.183 171.191 262 171.191 265.8V280H165.191L164.641 277.2H164.441C163.175 278.167 161.791 278.983 160.291 279.65C158.791 280.283 157.241 280.6 155.641 280.6ZM157.991 274.9C159.091 274.9 160.125 274.683 161.091 274.25C162.058 273.783 162.975 273.217 163.841 272.55V268.45C162.008 268.55 160.491 268.717 159.291 268.95C158.091 269.183 157.141 269.483 156.441 269.85C155.741 270.183 155.241 270.583 154.941 271.05C154.675 271.517 154.541 272.017 154.541 272.55C154.541 273.35 154.841 273.95 155.441 274.35C156.075 274.717 156.925 274.9 157.991 274.9ZM191.822 280.6C189.622 280.6 187.439 280.217 185.272 279.45C183.139 278.65 181.189 277.467 179.422 275.9L183.672 270.85C184.905 271.85 186.255 272.667 187.722 273.3C189.189 273.933 190.722 274.25 192.322 274.25C193.922 274.25 195.089 273.983 195.822 273.45C196.555 272.917 196.922 272.233 196.922 271.4C196.922 270.833 196.805 270.367 196.572 270C196.339 269.6 196.005 269.25 195.572 268.95C195.139 268.65 194.605 268.367 193.972 268.1C193.339 267.833 192.639 267.533 191.872 267.2L187.672 265.4C186.772 265.067 185.889 264.633 185.022 264.1C184.189 263.567 183.455 262.95 182.822 262.25C182.189 261.517 181.672 260.683 181.272 259.75C180.905 258.783 180.722 257.7 180.722 256.5C180.722 255.167 181.005 253.917 181.572 252.75C182.172 251.55 182.989 250.517 184.022 249.65C185.089 248.75 186.355 248.05 187.822 247.55C189.289 247.05 190.905 246.8 192.672 246.8C194.672 246.8 196.605 247.167 198.472 247.9C200.339 248.633 202.022 249.7 203.522 251.1L199.772 255.75C198.639 254.917 197.505 254.283 196.372 253.85C195.239 253.383 193.872 253.15 192.272 253.15C191.039 253.15 190.039 253.4 189.272 253.9C188.539 254.4 188.172 255.133 188.172 256.1C188.172 257.067 188.655 257.817 189.622 258.35C190.622 258.85 191.922 259.383 193.522 259.95L197.472 261.65C199.639 262.45 201.339 263.55 202.572 264.95C203.839 266.35 204.472 268.2 204.472 270.5C204.472 271.867 204.189 273.167 203.622 274.4C203.055 275.6 202.239 276.667 201.172 277.6C200.105 278.5 198.789 279.233 197.222 279.8C195.655 280.333 193.855 280.6 191.822 280.6ZM226.552 280.6C224.586 280.6 222.769 280.317 221.102 279.75C219.436 279.15 217.969 278.3 216.702 277.2C215.469 276.1 214.502 274.75 213.802 273.15C213.102 271.517 212.752 269.667 212.752 267.6C212.752 265.533 213.136 263.7 213.902 262.1C214.702 260.467 215.752 259.1 217.052 258C218.386 256.9 219.919 256.067 221.652 255.5C223.386 254.9 225.202 254.6 227.102 254.6C229.069 254.6 230.836 254.917 232.402 255.55C234.002 256.183 235.336 256.983 236.402 257.95L233.002 262.5C231.169 261.2 229.336 260.55 227.502 260.55C225.369 260.55 223.636 261.183 222.302 262.45C220.969 263.717 220.302 265.433 220.302 267.6C220.302 269.767 220.936 271.483 222.202 272.75C223.502 274.017 225.186 274.65 227.252 274.65C228.552 274.65 229.736 274.417 230.802 273.95C231.902 273.483 232.902 272.933 233.802 272.3L236.752 276.95C235.252 278.217 233.602 279.15 231.802 279.75C230.002 280.317 228.252 280.6 226.552 280.6ZM247.683 280V255.2H253.683L254.283 260.6H254.433C255.666 258.567 257.149 257.067 258.883 256.1C260.616 255.1 262.483 254.6 264.483 254.6C265.583 254.6 266.466 254.683 267.133 254.85C267.833 255.017 268.549 255.267 269.283 255.6L267.783 261.75C267.016 261.517 266.316 261.35 265.683 261.25C265.083 261.117 264.316 261.05 263.383 261.05C261.849 261.05 260.333 261.5 258.833 262.4C257.366 263.3 256.099 264.867 255.033 267.1V280H247.683ZM288.263 280V260.95H278.313V255.2H295.613V280H288.263ZM291.613 251.3C290.18 251.3 288.997 250.9 288.063 250.1C287.163 249.3 286.713 248.217 286.713 246.85C286.713 245.483 287.163 244.383 288.063 243.55C288.997 242.683 290.18 242.25 291.613 242.25C293.047 242.25 294.213 242.683 295.113 243.55C296.047 244.383 296.513 245.483 296.513 246.85C296.513 248.217 296.047 249.3 295.113 250.1C294.213 250.9 293.047 251.3 291.613 251.3ZM310.444 289.2V255.2H316.444L316.994 257.7H317.144C318.144 256.8 319.294 256.067 320.594 255.5C321.894 254.9 323.21 254.6 324.544 254.6C326.077 254.6 327.46 254.9 328.694 255.5C329.927 256.1 330.977 256.95 331.844 258.05C332.71 259.15 333.36 260.483 333.794 262.05C334.26 263.583 334.494 265.3 334.494 267.2C334.494 269.333 334.194 271.233 333.594 272.9C332.994 274.533 332.194 275.933 331.194 277.1C330.194 278.233 329.044 279.1 327.744 279.7C326.477 280.3 325.144 280.6 323.744 280.6C321.477 280.6 319.444 279.7 317.644 277.9H317.444L317.794 281.95V289.2H310.444ZM322.044 274.6C323.444 274.6 324.61 274.033 325.544 272.9C326.477 271.733 326.944 269.867 326.944 267.3C326.944 262.833 325.427 260.6 322.394 260.6C320.827 260.6 319.294 261.367 317.794 262.9V272.95C318.494 273.55 319.21 273.983 319.944 274.25C320.71 274.483 321.41 274.6 322.044 274.6ZM358.724 280.6C356.758 280.6 355.091 280.333 353.724 279.8C352.358 279.267 351.241 278.533 350.374 277.6C349.541 276.633 348.941 275.483 348.574 274.15C348.208 272.817 348.024 271.333 348.024 269.7V260.95H341.774V255.5L348.374 255.2L349.324 247.6H355.374V255.2H365.874V260.95H355.374V269.65C355.374 271.55 355.791 272.9 356.624 273.7C357.458 274.467 358.791 274.85 360.624 274.85C361.558 274.85 362.408 274.767 363.174 274.6C363.974 274.433 364.758 274.217 365.524 273.95L366.824 279.25C365.724 279.583 364.508 279.883 363.174 280.15C361.874 280.45 360.391 280.6 358.724 280.6Z" fill="black"/>
<path d="M285.775 442V406.14H309.59V412.96H293.86V421.265H307.28V428.085H293.86V442H285.775ZM327.994 442.66C324.877 442.66 322.622 441.67 321.229 439.69C319.835 437.71 319.139 434.997 319.139 431.55V414.72H327.224V430.505C327.224 432.338 327.499 433.677 328.049 434.52C328.599 435.363 329.644 435.785 331.184 435.785C332.21 435.785 333.109 435.565 333.879 435.125C334.685 434.685 335.565 433.86 336.519 432.65V414.72H344.604V442H338.004L337.399 438.095H337.179C335.969 439.488 334.63 440.607 333.164 441.45C331.697 442.257 329.974 442.66 327.994 442.66ZM373.182 442.66C369.735 442.66 367.132 441.652 365.372 439.635C363.649 437.582 362.787 434.813 362.787 431.33V409.825H354.207V403.445H370.872V431.66C370.872 432.503 370.982 433.218 371.202 433.805C371.459 434.355 371.789 434.813 372.192 435.18C372.632 435.51 373.109 435.748 373.622 435.895C374.172 436.042 374.74 436.115 375.327 436.115C375.95 436.115 376.592 436.06 377.252 435.95C377.949 435.803 378.719 435.565 379.562 435.235L381.377 441.175C380.644 441.395 379.965 441.597 379.342 441.78C378.719 441.963 378.095 442.11 377.472 442.22C376.849 442.367 376.189 442.477 375.492 442.55C374.795 442.623 374.025 442.66 373.182 442.66ZM408.911 442.66C405.464 442.66 402.861 441.652 401.101 439.635C399.377 437.582 398.516 434.813 398.516 431.33V409.825H389.936V403.445H406.601V431.66C406.601 432.503 406.711 433.218 406.931 433.805C407.187 434.355 407.517 434.813 407.921 435.18C408.361 435.51 408.837 435.748 409.351 435.895C409.901 436.042 410.469 436.115 411.056 436.115C411.679 436.115 412.321 436.06 412.981 435.95C413.677 435.803 414.447 435.565 415.291 435.235L417.106 441.175C416.372 441.395 415.694 441.597 415.071 441.78C414.447 441.963 413.824 442.11 413.201 442.22C412.577 442.367 411.917 442.477 411.221 442.55C410.524 442.623 409.754 442.66 408.911 442.66ZM475.033 442.66C472.613 442.66 470.211 442.238 467.828 441.395C465.481 440.515 463.336 439.213 461.393 437.49L466.068 431.935C467.424 433.035 468.909 433.933 470.523 434.63C472.136 435.327 473.823 435.675 475.583 435.675C477.343 435.675 478.626 435.382 479.433 434.795C480.239 434.208 480.643 433.457 480.643 432.54C480.643 431.917 480.514 431.403 480.258 431C480.001 430.56 479.634 430.175 479.158 429.845C478.681 429.515 478.094 429.203 477.398 428.91C476.701 428.617 475.931 428.287 475.088 427.92L470.468 425.94C469.478 425.573 468.506 425.097 467.553 424.51C466.636 423.923 465.829 423.245 465.133 422.475C464.436 421.668 463.868 420.752 463.428 419.725C463.024 418.662 462.823 417.47 462.823 416.15C462.823 414.683 463.134 413.308 463.758 412.025C464.418 410.705 465.316 409.568 466.453 408.615C467.626 407.625 469.019 406.855 470.633 406.305C472.246 405.755 474.024 405.48 475.968 405.48C478.168 405.48 480.294 405.883 482.348 406.69C484.401 407.497 486.253 408.67 487.903 410.21L483.778 415.325C482.531 414.408 481.284 413.712 480.038 413.235C478.791 412.722 477.288 412.465 475.528 412.465C474.171 412.465 473.071 412.74 472.228 413.29C471.421 413.84 471.018 414.647 471.018 415.71C471.018 416.773 471.549 417.598 472.613 418.185C473.713 418.735 475.143 419.322 476.903 419.945L481.248 421.815C483.631 422.695 485.501 423.905 486.858 425.445C488.251 426.985 488.948 429.02 488.948 431.55C488.948 433.053 488.636 434.483 488.013 435.84C487.389 437.16 486.491 438.333 485.318 439.36C484.144 440.35 482.696 441.157 480.973 441.78C479.249 442.367 477.269 442.66 475.033 442.66ZM515.711 442.66C513.548 442.66 511.714 442.367 510.211 441.78C508.708 441.193 507.479 440.387 506.526 439.36C505.609 438.297 504.949 437.032 504.546 435.565C504.143 434.098 503.941 432.467 503.941 430.67V421.045H497.066V415.05L504.326 414.72L505.371 406.36H512.026V414.72H523.576V421.045H512.026V430.615C512.026 432.705 512.484 434.19 513.401 435.07C514.318 435.913 515.784 436.335 517.801 436.335C518.828 436.335 519.763 436.243 520.606 436.06C521.486 435.877 522.348 435.638 523.191 435.345L524.621 441.175C523.411 441.542 522.073 441.872 520.606 442.165C519.176 442.495 517.544 442.66 515.711 442.66ZM542.42 442.66C541.026 442.66 539.78 442.44 538.68 442C537.58 441.597 536.645 441.028 535.875 440.295C535.105 439.525 534.5 438.645 534.06 437.655C533.656 436.665 533.455 435.583 533.455 434.41C533.455 432.87 533.785 431.532 534.445 430.395C535.105 429.222 536.15 428.232 537.58 427.425C539.046 426.618 540.916 425.977 543.19 425.5C545.463 424.987 548.213 424.638 551.44 424.455C551.293 423.208 550.743 422.237 549.79 421.54C548.873 420.843 547.48 420.495 545.61 420.495C544.29 420.495 542.951 420.733 541.595 421.21C540.275 421.65 538.845 422.255 537.305 423.025L534.445 417.745C536.315 416.682 538.313 415.802 540.44 415.105C542.603 414.408 544.858 414.06 547.205 414.06C551.018 414.06 554.025 415.068 556.225 417.085C558.425 419.102 559.525 422.2 559.525 426.38V442H552.925L552.32 438.92H552.1C550.706 439.983 549.185 440.882 547.535 441.615C545.885 442.312 544.18 442.66 542.42 442.66ZM545.005 436.39C546.215 436.39 547.351 436.152 548.415 435.675C549.478 435.162 550.486 434.538 551.44 433.805V429.295C549.423 429.405 547.755 429.588 546.435 429.845C545.115 430.102 544.07 430.432 543.3 430.835C542.53 431.202 541.98 431.642 541.65 432.155C541.356 432.668 541.21 433.218 541.21 433.805C541.21 434.685 541.54 435.345 542.2 435.785C542.896 436.188 543.831 436.39 545.005 436.39ZM584.693 442.66C582.53 442.66 580.531 442.348 578.698 441.725C576.865 441.065 575.251 440.13 573.858 438.92C572.501 437.71 571.438 436.225 570.668 434.465C569.898 432.668 569.513 430.633 569.513 428.36C569.513 426.087 569.935 424.07 570.778 422.31C571.658 420.513 572.813 419.01 574.243 417.8C575.71 416.59 577.396 415.673 579.303 415.05C581.21 414.39 583.208 414.06 585.298 414.06C587.461 414.06 589.405 414.408 591.128 415.105C592.888 415.802 594.355 416.682 595.528 417.745L591.788 422.75C589.771 421.32 587.755 420.605 585.738 420.605C583.391 420.605 581.485 421.302 580.018 422.695C578.551 424.088 577.818 425.977 577.818 428.36C577.818 430.743 578.515 432.632 579.908 434.025C581.338 435.418 583.19 436.115 585.463 436.115C586.893 436.115 588.195 435.858 589.368 435.345C590.578 434.832 591.678 434.227 592.668 433.53L595.913 438.645C594.263 440.038 592.448 441.065 590.468 441.725C588.488 442.348 586.563 442.66 584.693 442.66ZM605.737 442V403.445H613.822V425.72H614.042L624.052 414.72H632.907L622.512 425.83L633.732 442H624.987L617.837 430.835L613.822 435.125V442H605.737ZM283.85 511V475.14H293.75C296.353 475.14 298.718 475.488 300.845 476.185C302.972 476.882 304.787 477.963 306.29 479.43C307.793 480.86 308.948 482.693 309.755 484.93C310.598 487.167 311.02 489.825 311.02 492.905C311.02 495.985 310.617 498.662 309.81 500.935C309.003 503.208 307.848 505.097 306.345 506.6C304.878 508.067 303.118 509.167 301.065 509.9C299.012 510.633 296.738 511 294.245 511H283.85ZM291.99 504.455H293.31C294.703 504.455 295.968 504.253 297.105 503.85C298.278 503.447 299.268 502.805 300.075 501.925C300.918 501.008 301.56 499.817 302 498.35C302.477 496.883 302.715 495.068 302.715 492.905C302.715 490.778 302.477 489 302 487.57C301.56 486.103 300.918 484.948 300.075 484.105C299.268 483.225 298.278 482.602 297.105 482.235C295.968 481.868 294.703 481.685 293.31 481.685H291.99V504.455ZM320.789 511V475.14H344.549V481.96H328.929V489.165H342.184V495.93H328.929V504.18H345.099V511H320.789ZM363.117 511L352.282 475.14H360.862L365.152 491.86C365.702 493.84 366.179 495.765 366.582 497.635C367.022 499.468 367.499 501.375 368.012 503.355H368.232C368.782 501.375 369.277 499.468 369.717 497.635C370.157 495.765 370.634 493.84 371.147 491.86L375.382 475.14H383.632L372.852 511H363.117Z" fill="white"/>
<rect x="191" y="54" width="427" height="512" fill="#5352ED" fill-opacity="0.75"/>
</svg>
